<svg xmlns="http://www.w3.org/2000/svg" version="1.1" xmlns:xlink="http://www.w3.org/1999/xlink" fill="none" width="995.5439999999999" height="186.1199999999999" viewBox="0 0 995.5439999999999 186.1199999999999"><path d="M0.00341797 0.00390625M118.213 68.1138Q118.213 80.1938 112.663 90.1938Q107.123 100.194 95.6333 106.334Q84.1533 112.464 67.1233 112.464L46.1333 112.464L46.1333 162.364L12.2834 162.364L12.2834 23.3638L67.1233 23.3638Q83.7534 23.3638 95.2434 29.1138Q106.723 34.854 112.463 44.9541Q118.213 55.0439 118.213 68.1138ZM64.5535 85.5439Q74.2534 85.5439 79.0034 80.9839Q83.7534 76.4341 83.7534 68.1138Q83.7534 59.8042 79.0034 55.2441Q74.2534 50.6938 64.5535 50.6938L46.1333 50.6938L46.1333 85.5439L64.5535 85.5439ZM186.123 163.944Q169.883 163.944 156.913 157.014Q143.943 150.084 136.523 137.214Q129.093 124.344 129.093 107.124Q129.093 90.0938 136.623 77.124Q144.143 64.1538 157.213 57.2241Q170.283 50.2939 186.513 50.2939Q202.753 50.2939 215.823 57.2241Q228.893 64.1538 236.413 77.124Q243.933 90.0938 243.933 107.124Q243.933 124.154 236.313 137.124Q228.693 150.084 215.523 157.014Q202.353 163.944 186.123 163.944ZM186.123 134.644Q195.823 134.644 202.653 127.514Q209.483 120.384 209.483 107.124Q209.483 93.854 202.853 86.7241Q196.223 79.604 186.513 79.604Q176.613 79.604 170.083 86.6338Q163.553 93.6538 163.553 107.124Q163.553 120.384 169.983 127.514Q176.423 134.644 186.123 134.644ZM295.803 15.8438L295.803 162.364L261.953 162.364L261.953 15.8438L295.803 15.8438ZM337.383 40.394Q328.473 40.394 322.833 35.1538Q317.193 29.9038 317.193 22.1841Q317.193 14.2642 322.833 9.01416Q328.473 3.76416 337.383 3.76416Q346.103 3.76416 351.743 9.01416Q357.383 14.2642 357.383 22.1841Q357.383 29.9038 351.743 35.1538Q346.103 40.394 337.383 40.394ZM354.213 51.8838L354.213 162.364L320.363 162.364L320.363 51.8838L354.213 51.8838ZM372.033 107.124Q372.033 89.894 379.063 77.0239Q386.093 64.1538 398.673 57.2241Q411.243 50.2939 427.473 50.2939Q448.263 50.2939 462.223 61.1841Q476.183 72.0742 480.543 91.874L444.503 91.874Q439.953 79.2041 426.883 79.2041Q417.573 79.2041 412.033 86.4341Q406.493 93.6538 406.493 107.124Q406.493 120.584 412.033 127.814Q417.573 135.044 426.883 135.044Q439.953 135.044 444.503 122.364L480.543 122.364Q476.183 141.774 462.123 152.864Q448.073 163.944 427.473 163.944Q411.243 163.944 398.673 157.014Q386.093 150.084 379.063 137.214Q372.033 124.344 372.033 107.124ZM611.423 51.8838L542.123 214.834L505.683 214.834L531.033 158.604L486.083 51.8838L523.903 51.8838L549.443 120.984L574.793 51.8838L611.423 51.8838ZM729.633 68.1138Q729.633 80.1938 724.083 90.1938Q718.543 100.194 707.053 106.334Q695.573 112.464 678.543 112.464L657.553 112.464L657.553 162.364L623.703 162.364L623.703 23.3638L678.543 23.3638Q695.173 23.3638 706.663 29.1138Q718.143 34.854 723.883 44.9541Q729.633 55.0439 729.633 68.1138ZM675.973 85.5439Q685.673 85.5439 690.423 80.9839Q695.173 76.4341 695.173 68.1138Q695.173 59.8042 690.423 55.2441Q685.673 50.6938 675.973 50.6938L657.553 50.6938L657.553 85.5439L675.973 85.5439ZM797.543 163.944Q781.303 163.944 768.333 157.014Q755.363 150.084 747.943 137.214Q740.513 124.344 740.513 107.124Q740.513 90.0938 748.043 77.124Q755.563 64.1538 768.633 57.2241Q781.703 50.2939 797.933 50.2939Q814.173 50.2939 827.243 57.2241Q840.313 64.1538 847.833 77.124Q855.353 90.0938 855.353 107.124Q855.353 124.154 847.733 137.124Q840.113 150.084 826.943 157.014Q813.773 163.944 797.543 163.944ZM797.543 134.644Q807.243 134.644 814.073 127.514Q820.903 120.384 820.903 107.124Q820.903 93.854 814.273 86.7241Q807.643 79.604 797.933 79.604Q788.033 79.604 781.503 86.6338Q774.973 93.6538 774.973 107.124Q774.973 120.384 781.403 127.514Q787.843 134.644 797.543 134.644ZM907.233 67.5239Q912.183 59.8042 920.903 55.0439Q929.613 50.2939 941.293 50.2939Q954.953 50.2939 966.043 57.2241Q977.133 64.1538 983.563 77.0239Q990.003 89.894 990.003 106.924Q990.003 123.954 983.563 136.924Q977.133 149.894 966.043 156.924Q954.953 163.944 941.293 163.944Q929.813 163.944 921.003 159.194Q912.183 154.444 907.233 146.924L907.233 215.034L873.383 215.034L873.383 51.8838L907.233 51.8838L907.233 67.5239ZM955.553 106.924Q955.553 94.2539 948.523 87.0239Q941.493 79.7939 931.193 79.7939Q921.093 79.7939 914.073 87.124Q907.043 94.4541 907.043 107.124Q907.043 119.794 914.073 127.124Q921.093 134.444 931.193 134.444Q941.293 134.444 948.423 127.024Q955.553 119.594 955.553 106.924Z" fill-opacity="1" fill="rgba(255,255,255,1)"></path></svg>